<?xml version="1.0" standalone="no"?>
<!DOCTYPE svg PUBLIC "-//W3C//DTD SVG 20010904//EN"
 "http://www.w3.org/TR/2001/REC-SVG-20010904/DTD/svg10.dtd">
<svg version="1.0" xmlns="http://www.w3.org/2000/svg"
 width="256.000000pt" height="256.000000pt" viewBox="0 0 256.000000 256.000000"
 preserveAspectRatio="xMidYMid meet">

  <g transform="translate(0.000000,256.000000) scale(0.100000,-0.100000)"
  fill="#000000" stroke="none">
    <path d="M792 2237 l-474 -211 5 -410 c3 -342 7 -424 21 -486 105 -457 388
-808 784 -973 130 -55 174 -55 304 0 396 165 679 516 784 973 14 62 18 144 21
486 l5 410 -479 212 c-263 117 -482 212 -488 211 -5 0 -223 -96 -483 -212z
m603 -448 c72 -27 147 -100 169 -165 10 -30 16 -81 16 -138 l0 -91 43 -20 c31
-15 48 -32 65 -65 21 -41 22 -57 22 -242 0 -215 -5 -242 -55 -288 l-27 -25
-343 -3 -343 -3 -36 32 c-52 45 -58 77 -54 309 3 195 4 207 26 237 12 17 40
40 62 49 l40 18 0 91 c0 119 18 172 81 235 87 87 216 113 334 69z"/>
    <path d="M1237 1679 c-90 -21 -117 -66 -117 -198 l0 -91 160 0 160 0 0 93 c0
71 -4 100 -18 127 -30 55 -110 85 -185 69z"/>
  </g>
</svg>
